# xmcd
# Track frame offsets:
# 150
# 13711
# 27613
# 41429
# 56605
# 68005
# 85207
# 98407
# 112922
# 124553
# 138495
# 154270
# 168830
# 183120
# 196037
# 208183
# 215110
# 226638
# 245687
# 266013
# 276410
# 286337
# 299779
# 314779
#
# Disc length: 4373 seconds
# Revision: 3
# Processed by: cddbd v1.5.2PL0 Copyright (c) Steve Scherf et al.
# Submitted via: VisiTrax 2.11.3.279 - For more info visit www.synapsa.com
#
DISCID=65111318
DTITLE=Slim Dusty - The Very Best Of Slim Dusty [Brown Cover Edition]
DYEAR=1998
DGENRE=Australian Country
TTITLE0=Slim Dusty - Pub With No Beer
TTITLE1=Slim Dusty - Lights On The Hill
TTITLE2=Slim Dusty - The Biggest Disappointment
TTITLE3=Slim Dusty - Three Rivers Hotel
TTITLE4=Slim Dusty - Ringer From The Top End
TTITLE5=Slim Dusty - Where Country Is
TTITLE6=Slim Dusty - Leave Him In The Long Yard
TTITLE7=Slim Dusty - Plains Of Peppimenarti
TTITLE8=Slim Dusty - Duncan
TTITLE9=Slim Dusty - Charleville
TTITLE10=Slim Dusty - Indian Pacific
TTITLE11=Slim Dusty - Sweeney (Live)
TTITLE12=Slim Dusty - G'day G'day
TTITLE13=Slim Dusty - Walk A Country Mile
TTITLE14=Slim Dusty - When The Rain Tumbles Down In July
TTITLE15=Slim Dusty - I'm Going Back Again To Yarrawonga (Live)
TTITLE16=Slim Dusty With Joy McKean and Anne Kirkpatrick - Old Time Country Halls
TTITLE17=Slim Dusty - Camooweal
TTITLE18=Slim Dusty - We've Done Us Proud
TTITLE19=Slim Dusty - Country Revival
TTITLE20=Slim Dusty - Cunnamulla feller
TTITLE21=Slim Dusty - By A Fire Of Gidgee Coal
TTITLE22=Slim Dusty - Losin' My Blues Tonight (Live)
TTITLE23=Slim Dusty Featuring Rolf Harris - Wobbly Boot
EXTD=1998 Slim Dusty Enterprises Pty Limited
EXTT0=
EXTT1=
EXTT2=
EXTT3=
EXTT4=
EXTT5=
EXTT6=
EXTT7=
EXTT8=
EXTT9=
EXTT10=
EXTT11=
EXTT12=
EXTT13=
EXTT14=
EXTT15=
EXTT16=
EXTT17=
EXTT18=
EXTT19=
EXTT20=
EXTT21=
EXTT22=
EXTT23=
PLAYORDER=
